<svg width="83" height="84" viewBox="0 0 83 84" fill="none" xmlns="http://www.w3.org/2000/svg">
<path d="M72.2037 47.9511C78.7577 41.7021 82.2967 33.0791 82.4487 24.1201C82.5547 17.9111 79.7647 12.2951 72.9127 12.5881C62.7987 13.0201 56.1697 23.2721 50.1247 29.9591C49.9437 30.1581 49.8357 30.3721 49.7767 30.5861L47.9347 28.8941L47.4347 30.5191L42.3097 38.0191L41.0597 37.1441V30.5191C44.5597 28.8941 44.6847 25.3941 44.6847 25.3941C44.8097 22.6441 46.9347 21.7691 46.9347 21.7691C50.9347 20.0191 52.0597 17.5191 52.0597 17.5191C53.1847 16.5191 43.1847 16.5191 43.1847 16.5191L41.8097 14.8941C46.3097 11.7691 43.1847 7.76914 43.1847 7.76914C49.4347 2.76914 47.0597 1.39414 47.0597 1.39414C42.8097 -1.10586 30.5597 0.51914 30.5597 0.51914C27.8097 1.01914 28.3097 2.01914 28.3097 2.01914C28.3097 4.26914 32.4347 8.01914 32.4347 8.01914C28.9347 12.5191 33.6847 14.7691 33.6847 14.7691L32.9347 16.6441L25.4347 16.3941C23.8097 16.3941 23.9347 16.6441 23.9347 16.6441C24.0597 19.6441 28.9347 21.5191 28.9347 21.5191C30.8097 21.8941 30.8097 23.8941 30.8097 23.8941C30.4347 28.1441 34.4347 30.3941 34.4347 30.3941V36.8941C34.0597 37.2691 33.6847 38.0191 33.6847 38.0191L31.6847 32.8941H27.4347L27.3097 36.7691L31.9347 39.3941C31.0597 40.7691 31.3097 43.3941 31.3097 43.3941C29.4347 44.7691 28.8097 46.1441 28.8097 46.1441L28.9347 49.5191C30.0597 50.6441 30.8097 50.5191 30.8097 50.5191V53.3791C28.7387 53.8731 26.7087 54.5061 24.7627 55.3081C19.5877 57.4401 16.2847 61.5101 15.8307 65.9981C14.5127 66.7331 13.3077 67.5741 12.1797 68.5151L11.9217 68.2761C11.9217 68.2761 8.52374 68.1691 6.42174 73.5261C6.42174 73.5261 2.27074 74.5351 2.37874 78.6941C2.37874 78.6941 -1.69826 80.2571 0.822737 83.0781C0.822737 83.0781 3.96474 85.4751 5.16474 80.1251C5.16474 80.1251 8.79574 80.8041 8.99274 76.3211C9.10174 76.1921 9.20874 76.0541 9.31774 75.9271C10.2297 75.6831 12.9737 74.6631 14.1717 71.1641C14.7977 70.6501 15.4437 70.1601 16.1077 69.6921C16.5837 71.5911 17.5867 73.4921 19.1907 75.2861C22.5047 78.9931 28.2457 80.3611 32.8607 81.4291C38.6377 82.7641 45.0517 83.2181 50.9037 82.1721C57.6097 80.9741 70.8867 74.5431 66.9787 65.4641C64.2537 59.1331 57.1357 57.2211 49.9887 56.6601C49.2227 55.9931 48.3547 55.3951 47.4087 54.8701C56.5707 54.8151 64.9577 54.8581 72.2037 47.9511ZM51.3097 34.0191L52.5597 33.1441L51.7817 32.4291C51.9427 32.3511 52.0997 32.2411 52.2457 32.0791C56.2597 27.6391 59.8017 22.7131 64.6147 19.0761C70.1627 14.8861 78.3397 13.4871 79.3567 22.0661C80.7417 33.7281 72.7657 47.7641 61.2997 51.0471C56.0547 52.5491 50.2967 52.0611 44.7597 51.9731L44.8097 50.3931L46.3097 49.6431V47.0191C46.3097 44.7691 44.0597 43.6441 44.0597 43.6441C44.1847 40.0191 43.5597 39.2691 43.5597 39.2691L51.3097 34.0191ZM23.6257 59.2641C22.8647 60.4601 22.3557 61.7611 22.1787 63.1371C21.0927 63.6271 19.9717 64.0771 18.8797 64.5391C19.5957 62.2571 21.5147 60.5331 23.6257 59.2641ZM63.8987 65.8401C66.5027 69.8261 61.5947 74.1791 58.7807 76.1411C49.5027 82.6081 32.2137 80.3311 23.0537 74.6381C20.6957 73.1731 19.0707 70.7321 18.6647 68.0541C19.8207 67.3871 21.0497 66.7711 22.3537 66.1991C23.6527 71.2071 30.1257 73.0191 37.9347 73.0191C46.6797 73.0191 53.7677 70.7581 53.7677 64.2691C53.7677 62.8691 53.4207 61.5331 52.8157 60.2881C53.0737 60.3121 53.3347 60.3381 53.5907 60.3621C57.7177 60.7501 61.5547 62.2511 63.8987 65.8401Z" fill="url(#paint0_linear)"/>
<defs>
<linearGradient id="paint0_linear" x1="41.2258" y1="0" x2="41.2258" y2="83.6135" gradientUnits="userSpaceOnUse">
<stop stop-color="#EF0ACC"/>
<stop offset="1" stop-color="#030003"/>
</linearGradient>
</defs>
</svg>
