<svg width="101" height="101" viewBox="0 0 101 101" fill="none" xmlns="http://www.w3.org/2000/svg">
<g clip-path="url(#clip0)">
<rect width="100.62" height="100.62" rx="50" fill="#131313"/>
<path d="M79.6575 0H20.9625C9.38701 0 0 9.38701 0 20.9625V79.6575C0 91.233 9.38701 100.62 20.9625 100.62H79.6575C91.2372 100.62 100.62 91.233 100.62 79.6575V20.9625C100.62 9.38701 91.2372 0 79.6575 0ZM67.08 29.3475H59.0136C56.4352 29.3475 54.5025 30.404 54.5025 33.0746V37.7325H67.08L66.0822 50.31H54.5025V83.85H41.925V50.31H33.54V37.7325H41.925V29.6703C41.925 21.1931 46.3858 16.77 56.4352 16.77H67.08V29.3475Z" fill="#EF0ACC"/>
</g>
<defs>
<clipPath id="clip0">
<rect width="100.62" height="100.62" rx="50" fill="white"/>
</clipPath>
</defs>
</svg>
