<svg width="101" height="101" viewBox="0 0 101 101" fill="none" xmlns="http://www.w3.org/2000/svg">
<g clip-path="url(#clip0)">
<rect width="100.62" height="100.62" rx="50" fill="#131313"/>
<path d="M63.8644 23.0084C60.3301 22.8491 59.2652 22.8156 50.31 22.8156C41.3548 22.8156 40.2941 22.8491 36.7598 23.0084C27.6621 23.4235 23.4235 27.7334 23.0126 36.7556C22.8491 40.2941 22.8114 41.3548 22.8114 50.31C22.8114 59.2652 22.8491 60.3259 23.0084 63.8644C23.4235 72.8698 27.6453 77.1965 36.7556 77.6116C40.2899 77.7709 41.3548 77.8086 50.31 77.8086C59.2694 77.8086 60.3301 77.7751 63.8644 77.6158C72.9621 77.2007 77.1965 72.8824 77.6116 63.8685C77.7709 60.3301 77.8044 59.2694 77.8044 50.3142C77.8044 41.359 77.7709 40.2983 77.6116 36.764C77.1965 27.7376 72.9537 23.4235 63.8644 23.0084V23.0084ZM50.31 67.5328C40.7972 67.5328 33.0872 59.8228 33.0872 50.31C33.0872 40.7972 40.8014 33.0872 50.31 33.0872C59.8186 33.0872 67.5328 40.7972 67.5328 50.31C67.5328 59.8228 59.8228 67.5328 50.31 67.5328ZM68.2162 36.4328C65.9941 36.4328 64.1914 34.6301 64.1914 32.408C64.1914 30.186 65.9941 28.3832 68.2162 28.3832C70.4382 28.3832 72.241 30.186 72.241 32.408C72.241 34.6301 70.4382 36.4328 68.2162 36.4328ZM61.4914 50.31C61.4914 56.4856 56.4856 61.4914 50.31 61.4914C44.1344 61.4914 39.1286 56.4856 39.1286 50.31C39.1286 44.1344 44.1344 39.1286 50.31 39.1286C56.4856 39.1286 61.4914 44.1344 61.4914 50.31ZM79.6575 0H20.9625C9.38701 0 0 9.38701 0 20.9625V79.6575C0 91.233 9.38701 100.62 20.9625 100.62H79.6575C91.2372 100.62 100.62 91.233 100.62 79.6575V20.9625C100.62 9.38701 91.2372 0 79.6575 0V0ZM83.6488 64.1369C83.0954 76.3329 76.3077 83.0912 64.1411 83.6488C60.5607 83.8123 59.4203 83.85 50.31 83.85C41.1997 83.85 40.0635 83.8123 36.4831 83.6488C24.2913 83.0912 17.533 76.3203 16.9712 64.1369C16.8077 60.5607 16.77 59.4203 16.77 50.31C16.77 41.2039 16.8077 40.0593 16.9712 36.4831C17.533 24.2913 24.2997 17.5288 36.4831 16.9754C40.0635 16.8077 41.1997 16.77 50.31 16.77C59.4203 16.77 60.5607 16.8077 64.1411 16.9712C76.3328 17.5288 83.1037 24.3123 83.6488 36.4789C83.8123 40.0593 83.85 41.2039 83.85 50.31C83.85 59.4203 83.8123 60.5607 83.6488 64.1369V64.1369Z" fill="#EF0ACC"/>
</g>
<defs>
<clipPath id="clip0">
<rect width="100.62" height="100.62" rx="50" fill="white"/>
</clipPath>
</defs>
</svg>
